<svg xmlns="http://www.w3.org/2000/svg" width="360" height="74"><path d="M0 0 C1.20366211 0.00483398 1.20366211 0.00483398 2.43164062 0.00976562 C3.68170898 0.02233398 3.68170898 0.02233398 4.95703125 0.03515625 C5.80201172 0.03966797 6.64699219 0.04417969 7.51757812 0.04882812 C9.6015928 0.06060222 11.68557102 0.07853735 13.76953125 0.09765625 C13.10953125 3.72765625 12.44953125 7.35765625 11.76953125 11.09765625 C10.9496875 11.195625 10.12984375 11.29359375 9.28515625 11.39453125 C8.2075 11.5440625 7.12984375 11.69359375 6.01953125 11.84765625 C4.9521875 11.986875 3.88484375 12.12609375 2.78515625 12.26953125 C-0.68315734 13.2219697 -2.01693373 14.30487842 -4.23046875 17.09765625 C-4.56046875 18.08765625 -4.89046875 19.07765625 -5.23046875 20.09765625 C0.70953125 20.42765625 6.64953125 20.75765625 12.76953125 21.09765625 C13.01703125 19.57140625 13.26453125 18.04515625 13.51953125 16.47265625 C14.76788204 10.33493154 16.7565869 6.61763464 21.83203125 2.78515625 C26.62699553 0.0306023 30.57145491 -0.02599003 35.95703125 0.03515625 C36.70662109 0.03966797 37.45621094 0.04417969 38.22851562 0.04882812 C40.07555508 0.06059271 41.92255338 0.0785276 43.76953125 0.09765625 C43.62910248 1.74395953 43.48203796 3.38969804 43.33203125 5.03515625 C43.21021484 6.40994141 43.21021484 6.40994141 43.0859375 7.8125 C42.76953125 10.09765625 42.76953125 10.09765625 41.76953125 11.09765625 C40.16951387 11.39201282 38.56429591 11.6583593 36.95703125 11.91015625 C32.7490958 12.71567532 30.31602611 13.44398971 27.76953125 17.09765625 C27.27453125 18.58265625 27.27453125 18.58265625 26.76953125 20.09765625 C41.61953125 20.59265625 41.61953125 20.59265625 56.76953125 21.09765625 C55.64430187 31.22472067 55.64430187 31.22472067 54.9375 34.85131836 C54.70220581 36.07189186 54.70220581 36.07189186 54.4621582 37.31712341 C54.29546631 38.16122269 54.12877441 39.00532196 53.95703125 39.875 C53.78324951 40.76755997 53.60946777 41.66011993 53.43041992 42.57972717 C53.06573164 44.44810981 52.69925485 46.31614417 52.33105469 48.18383789 C51.76648181 51.05064077 51.20903743 53.9187672 50.65234375 56.78710938 C50.29599325 58.60815522 49.93923708 60.42912174 49.58203125 62.25 C49.41533936 63.10826889 49.24864746 63.96653778 49.0769043 64.85081482 C47.88479116 70.86713643 47.88479116 70.86713643 46.76953125 73.09765625 C42.47953125 73.09765625 38.18953125 73.09765625 33.76953125 73.09765625 C34.38335154 64.78318145 35.6442379 56.77055993 37.26953125 48.59765625 C37.49511719 47.43234375 37.72070312 46.26703125 37.953125 45.06640625 C39.61923363 36.54854911 39.61923363 36.54854911 40.76953125 33.09765625 C35.15953125 33.09765625 29.54953125 33.09765625 23.76953125 33.09765625 C23.66640625 34.26296875 23.56328125 35.42828125 23.45703125 36.62890625 C22.74799929 43.00020753 21.4567897 49.2611714 20.18554688 55.5390625 C19.76502084 57.61997538 19.3528799 59.70243656 18.94140625 61.78515625 C18.67627539 63.10817204 18.41066829 64.4310925 18.14453125 65.75390625 C17.90476563 66.94822266 17.665 68.14253906 17.41796875 69.37304688 C16.76953125 72.09765625 16.76953125 72.09765625 15.76953125 73.09765625 C13.58313672 73.17024571 11.39452736 73.18139408 9.20703125 73.16015625 C7.41072266 73.14662109 7.41072266 73.14662109 5.578125 73.1328125 C4.18787109 73.11541016 4.18787109 73.11541016 2.76953125 73.09765625 C3.4966003 64.78698088 5.15906562 56.69556439 6.83203125 48.53515625 C7.11689688 47.13093244 7.40140491 45.72663604 7.68554688 44.32226562 C8.37543357 40.91305877 9.07262482 37.50546476 9.76953125 34.09765625 C3.82953125 33.76765625 -2.11046875 33.43765625 -8.23046875 33.09765625 C-8.33230469 34.25136719 -8.43414062 35.40507813 -8.5390625 36.59375 C-9.34586342 43.85495831 -10.87484321 50.99923529 -12.29296875 58.16015625 C-12.57780874 59.61256459 -12.86231663 61.06503811 -13.14648438 62.51757812 C-13.83670916 66.04517012 -14.53372464 69.57132141 -15.23046875 73.09765625 C-19.85046875 73.09765625 -24.47046875 73.09765625 -29.23046875 73.09765625 C-27.74695616 61.67861878 -25.65307815 50.43373121 -23.39916992 39.14501953 C-22.78896992 36.0775542 -22.19220296 33.00765509 -21.59570312 29.9375 C-21.20524349 27.9698899 -20.81399583 26.00243597 -20.421875 24.03515625 C-20.24676895 23.12572266 -20.0716629 22.21628906 -19.89125061 21.27929688 C-18.49987862 14.42051984 -16.75515727 8.92045362 -11.23046875 4.28515625 C-10.54984375 3.70121094 -9.86921875 3.11726562 -9.16796875 2.515625 C-6.15102258 0.30765835 -3.62444186 -0.02570526 0 0 Z " fill="#FFFFFF" transform="translate(215.23046875,-0.09765625)"></path><path d="M0 0 C-1.32 6.6 -2.64 13.2 -4 20 C-2.35 19.34 -0.7 18.68 1 18 C7.91392812 17.27469691 13.96425164 17.4278224 20 21 C24.01807228 24.30374832 25.97821256 26.89106278 27 32 C27.99327069 44.09661799 25.55715716 56.20791903 17.75 65.75 C11.48066657 70.87945463 5.92010953 72.64778532 -2.125 72.4375 C-3.28322266 72.44813477 -3.28322266 72.44813477 -4.46484375 72.45898438 C-10.0653454 72.3969686 -14.40347762 71.42383205 -18.64453125 67.46484375 C-24.60198902 59.67432205 -23.88233567 50.89753922 -22.66748047 41.40057373 C-21.65177646 35.03874168 -20.32768809 28.74012 -19 22.4375 C-18.61307081 20.54002134 -18.22764534 18.64223541 -17.84375 16.74414062 C-16.9130683 12.15904585 -15.96235545 7.57854684 -15 3 C-13.44033782 2.491217 -11.87710759 1.99336531 -10.3125 1.5 C-9.44238281 1.2215625 -8.57226562 0.943125 -7.67578125 0.65625 C-5 0 -5 0 0 0 Z M-5 32 C-9.47475535 38.62926718 -10.6408902 48.14909503 -10 56 C-8.98263229 58.76142665 -8.63829259 59.68085371 -6 61 C-0.83986434 61.5816578 3.51505369 61.92809144 8 59.125 C13.03811731 51.2529417 14.81933784 41.20441315 13 32 C9.37804643 29.00444593 6.46306999 28.5136748 1.92578125 28.71875 C-1.03783918 29.15157083 -2.73050794 30.05472109 -5 32 Z " fill="#FFFFFF" transform="translate(23,2)"></path><path d="M0 0 C4.04363622 3.25249001 5.94513753 5.91748082 7 11 C7.96855258 22.705061 5.74299921 34.24114461 -1 44 C-7.41092183 49.75451345 -13.20951845 51.20969505 -21.6875 51.3125 C-22.46544922 51.34150391 -23.24339844 51.37050781 -24.04492188 51.40039062 C-29.77963438 51.46256849 -34.37002988 50.53878455 -39 47 C-42.96395764 42.54505778 -43.65458157 37.72423219 -43.5 31.875 C-43.48791504 31.13580322 -43.47583008 30.39660645 -43.46337891 29.63500977 C-43.10064075 19.44206769 -40.54259807 9.27385942 -33 2 C-23.73895025 -4.87045339 -10.08925969 -5.31979147 0 0 Z M-25 11 C-29.48785397 17.81488936 -31.250079 27.92383173 -30 36 C-28.81426975 38.76922685 -28.81426975 38.76922685 -26 40 C-21.06999252 40.63058235 -16.23790817 40.89484519 -12 38 C-10.69745694 36.01584405 -10.69745694 36.01584405 -9.8125 33.6875 C-9.48894531 32.92824219 -9.16539062 32.16898438 -8.83203125 31.38671875 C-7.2547353 26.86217496 -6.84245086 22.65515719 -6.8125 17.875 C-6.79832031 16.84117188 -6.78414062 15.80734375 -6.76953125 14.7421875 C-6.79591855 11.78279966 -6.79591855 11.78279966 -9 9 C-14.76361185 7.07879605 -20.27173784 6.94720386 -25 11 Z " fill="#FFFFFF" transform="translate(179,23)"></path><path d="M0 0 C2.6751157 2.70861447 3.88739459 4.33844324 4.53125 8.12109375 C4.4269151 19.19363503 4.4269151 19.19363503 0 24 C-0.45375 24.5775 -0.9075 25.155 -1.375 25.75 C-6.76992658 29.89994353 -13.44270095 29.23830608 -19.875 29.125 C-20.84953125 29.11597656 -21.8240625 29.10695312 -22.828125 29.09765625 C-25.21900728 29.07421623 -27.60937261 29.04140442 -30 29 C-29.73606499 32.43230448 -29.73606499 32.43230448 -29 36 C-25.71252584 38.19164944 -24.51505175 38.28679386 -20.67578125 38.4140625 C-19.64775391 38.45273437 -18.61972656 38.49140625 -17.56054688 38.53125 C-16.48869141 38.5621875 -15.41683594 38.593125 -14.3125 38.625 C-13.22904297 38.66367187 -12.14558594 38.70234375 -11.02929688 38.7421875 C-8.35303533 38.83650509 -5.67678157 38.92210005 -3 39 C-3.4752588 40.64696604 -3.95531891 42.29254728 -4.4375 43.9375 C-4.70433594 44.85402344 -4.97117187 45.77054688 -5.24609375 46.71484375 C-6 49 -6 49 -7 50 C-10.67878237 50.31038255 -14.37225304 50.27860306 -18.0625 50.3125 C-19.08794922 50.34150391 -20.11339844 50.37050781 -21.16992188 50.40039062 C-29.00684249 50.46557295 -34.47820661 49.1510783 -40.375 43.875 C-45.70169915 34.45083996 -43.61965275 24.96515906 -41 15 C-38.73354063 8.19022529 -34.35274848 2.40210386 -28.00390625 -1.1015625 C-19.11587588 -4.5915414 -8.44432171 -4.45246054 0 0 Z M-26 12 C-27.70805274 14.68408288 -28 15.76169533 -28 19 C-25.60225255 19.13572155 -23.21224755 19.23436868 -20.8125 19.3125 C-20.13896484 19.35439453 -19.46542969 19.39628906 -18.77148438 19.43945312 C-14.79847168 19.53635587 -13.16791503 19.13157357 -10.00390625 16.65234375 C-7.69826619 14.1873959 -7.69826619 14.1873959 -8.125 11.25 C-8.80091898 9.06483481 -8.80091898 9.06483481 -10 8 C-16.28916172 7.35631063 -21.59118673 6.88008781 -26 12 Z " fill="#FFFFFF" transform="translate(356,23)"></path><path d="M0 0 C3.24498663 2.8289627 4.24690135 5.22531453 4.875 9.375 C5.19521201 14.32597038 4.79644388 18.58620234 1.73828125 22.6953125 C-2.07244642 26.8361032 -5.68123985 28.79075944 -11.45117188 29.15454102 C-14.26197956 29.19654217 -17.064351 29.17451008 -19.875 29.125 C-20.84953125 29.11597656 -21.8240625 29.10695312 -22.828125 29.09765625 C-25.21900728 29.07421623 -27.60937261 29.04140442 -30 29 C-29.71848913 30.31471568 -29.42446661 31.62675767 -29.125 32.9375 C-28.96257812 33.66839844 -28.80015625 34.39929687 -28.6328125 35.15234375 C-28.17038477 37.20700294 -28.17038477 37.20700294 -26 38 C-24.26131256 38.15266612 -22.51752499 38.24932596 -20.7734375 38.31640625 C-19.7421875 38.35830078 -18.7109375 38.40019531 -17.6484375 38.44335938 C-16.56820312 38.48267578 -15.48796875 38.52199219 -14.375 38.5625 C-12.74304688 38.62727539 -12.74304688 38.62727539 -11.078125 38.69335938 C-8.3855483 38.7996453 -5.69287747 38.90168057 -3 39 C-3.4752588 40.64696604 -3.95531891 42.29254728 -4.4375 43.9375 C-4.70433594 44.85402344 -4.97117188 45.77054688 -5.24609375 46.71484375 C-6 49 -6 49 -7 50 C-10.51258504 50.28213534 -14.03995157 50.23192406 -17.5625 50.25 C-18.54025391 50.270625 -19.51800781 50.29125 -20.52539062 50.3125 C-26.96984407 50.34703157 -33.5158617 50.17157131 -38.55664062 45.58300781 C-43.92132564 39.43296933 -43.5564697 32.70948518 -43.18798828 24.96582031 C-42.3252535 15.94407941 -38.25630677 7.87893132 -31.6875 1.75 C-23.09985349 -5.15627572 -9.53246501 -5.02620882 0 0 Z M-24.0625 9.5625 C-26.43912455 12.55244701 -27.03814895 15.33641622 -28 19 C-25.39555652 19.05394705 -22.79223002 19.09364469 -20.1875 19.125 C-19.08051758 19.15013672 -19.08051758 19.15013672 -17.95117188 19.17578125 C-14.08753574 19.21074628 -12.29096332 19.19397555 -9 17 C-8.08743691 13.52894948 -8.08743691 13.52894948 -8 10 C-10.57399511 7.42600489 -11.73569284 7.67340064 -15.3125 7.625 C-18.94634598 7.70585783 -20.7820078 7.88877949 -24.0625 9.5625 Z " fill="#FFFFFF" transform="translate(96,23)"></path><path d="M0 0 C2.00848616 4.01697231 -0.92289724 9.95009361 -2 14 C3.28 14 8.56 14 14 14 C11.125 23.75 11.125 23.75 10 26 C5.05 26 0.1 26 -5 26 C-5.12375 27.60875 -5.2475 29.2175 -5.375 30.875 C-5.79076241 35.55684623 -6.53347436 40.03807591 -7.59765625 44.61328125 C-8.16623069 47.5826879 -8.16623069 47.5826879 -8 53 C-2.72 53.33 2.56 53.66 8 54 C7.07988583 58.60057086 5.89559434 61.79672559 4 66 C-12.45742799 66.57187974 -12.45742799 66.57187974 -18 63 C-21.50403631 59.34038831 -22.54973427 57.08001373 -22.5 52.0234375 C-22.20812225 42.0448668 -20.024385 32.36990026 -18 22.625 C-17.6133468 20.71379141 -17.22792119 18.80233404 -16.84375 16.890625 C-15.90994146 12.25743095 -14.95965417 7.62790673 -14 3 C-9.3242639 1.61917037 -4.84374212 0.59311128 0 0 Z " fill="#FFFFFF" transform="translate(124,7)"></path><path d="M0 0 C0.83144531 0.00451172 1.66289062 0.00902344 2.51953125 0.01367188 C4.55471897 0.02536836 6.58986923 0.04330065 8.625 0.0625 C7.96001617 4.45139325 6.43742323 8.0436485 4.625 12.0625 C2.97951172 12.11857422 2.97951172 12.11857422 1.30078125 12.17578125 C-0.15367857 12.24146653 -1.60810416 12.30791299 -3.0625 12.375 C-3.78373047 12.39755859 -4.50496094 12.42011719 -5.24804688 12.44335938 C-9.6840859 12.66617412 -12.8335572 13.12230962 -16.375 16.0625 C-19.81991769 22.36446546 -20.00783751 30.05260754 -19.375 37.0625 C-18.58641181 39.22795179 -18.58641181 39.22795179 -16.56933594 39.66772461 C-14.44893911 40.04919787 -12.41606337 40.26486785 -10.265625 40.37890625 C-9.13447266 40.44174805 -9.13447266 40.44174805 -7.98046875 40.50585938 C-7.20316406 40.54517578 -6.42585938 40.58449219 -5.625 40.625 C-4.43583984 40.68977539 -4.43583984 40.68977539 -3.22265625 40.75585938 C-1.27362185 40.86152991 0.67566748 40.96247966 2.625 41.0625 C2.1497412 42.70946604 1.66968109 44.35504728 1.1875 46 C0.92066406 46.91652344 0.65382813 47.83304688 0.37890625 48.77734375 C-0.375 51.0625 -0.375 51.0625 -1.375 52.0625 C-4.24226528 52.21764859 -7.068807 52.29432934 -9.9375 52.3125 C-10.72447266 52.333125 -11.51144531 52.35375 -12.32226562 52.375 C-19.24361361 52.4206478 -24.77460042 51.21065618 -30.25 46.6875 C-35.13688804 40.65075595 -34.95910836 34.52813499 -34.375 27.0625 C-32.93064149 18.55432564 -29.93853232 10.9917548 -23.375 5.1875 C-16.10898137 0.04073681 -8.6141755 -0.08930166 0 0 Z " fill="#FFFFFF" transform="translate(306.375,20.9375)"></path><path d="M0 0 C1.79244141 0.01740234 1.79244141 0.01740234 3.62109375 0.03515625 C5.41740234 0.04869141 5.41740234 0.04869141 7.25 0.0625 C8.17683594 0.07410156 9.10367187 0.08570313 10.05859375 0.09765625 C9.91751628 1.55645734 9.7705696 3.01469176 9.62109375 4.47265625 C9.53988281 5.28476563 9.45867187 6.096875 9.375 6.93359375 C9.05859375 9.09765625 9.05859375 9.09765625 8.05859375 11.09765625 C3.76859375 11.09765625 -0.52140625 11.09765625 -4.94140625 11.09765625 C-3.9697479 0.13179774 -3.9697479 0.13179774 0 0 Z " fill="#FFFFFF" transform="translate(265.94140625,-0.09765625)"></path></svg>